<svg width="24" height="24" viewBox="0 0 30 30" fill="none" xmlns="http://www.w3.org/2000/svg">
<path d="M28.4278 0.741456L29.2506 1.55534C30.3843 2.67823 30.2128 4.66881 28.8643 6.00137L11.8969 22.7854L6.39956 24.7746C5.70926 25.0256 5.03709 24.7001 4.90043 24.0503C4.85439 23.8146 4.87613 23.5709 4.96318 23.3468L7.01316 17.862L23.9332 1.12357C25.2817 -0.208998 27.294 -0.381432 28.4278 0.741456ZM11.1564 2.41061C11.3395 2.41061 11.5208 2.4463 11.69 2.51562C11.8592 2.58494 12.0129 2.68656 12.1424 2.81465C12.2719 2.94275 12.3747 3.09482 12.4447 3.26218C12.5148 3.42955 12.5509 3.60893 12.5509 3.79008C12.5509 3.97124 12.5148 4.15062 12.4447 4.31798C12.3747 4.48535 12.2719 4.63742 12.1424 4.76552C12.0129 4.89361 11.8592 4.99522 11.69 5.06455C11.5208 5.13387 11.3395 5.16955 11.1564 5.16955H5.57817C4.83846 5.16955 4.12905 5.46023 3.60599 5.97763C3.08294 6.49503 2.78909 7.19677 2.78909 7.92849V24.4821C2.78909 25.2138 3.08294 25.9156 3.60599 26.433C4.12905 26.9504 4.83846 27.2411 5.57817 27.2411H22.3127C23.0524 27.2411 23.7618 26.9504 24.2849 26.433C24.8079 25.9156 25.1018 25.2138 25.1018 24.4821V18.9642C25.1018 18.5984 25.2487 18.2475 25.5102 17.9888C25.7718 17.7301 26.1265 17.5848 26.4963 17.5848C26.8662 17.5848 27.2209 17.7301 27.4824 17.9888C27.744 18.2475 27.8909 18.5984 27.8909 18.9642V24.4821C27.8909 25.9456 27.3032 27.349 26.2571 28.3839C25.211 29.4187 23.7921 30 22.3127 30H5.57817C4.09875 30 2.67992 29.4187 1.63381 28.3839C0.587699 27.349 0 25.9456 0 24.4821V7.92849C0 6.46506 0.587699 5.06157 1.63381 4.02676C2.67992 2.99196 4.09875 2.41061 5.57817 2.41061H11.1564Z" fill="#6A71E5"/>
</svg>