<svg width="38" height="38" viewBox="0 0 38 38" fill="none" xmlns="http://www.w3.org/2000/svg">
<path d="M9.375 26.1392C8.62595 26.1392 7.98793 25.9354 7.46094 25.5277C6.93395 25.1167 6.53125 24.5218 6.25284 23.7429C5.97443 22.9607 5.83523 22.0161 5.83523 20.9091C5.83523 19.8087 5.97443 18.8691 6.25284 18.0902C6.53456 17.308 6.93892 16.7114 7.46591 16.3004C7.99621 15.8861 8.63258 15.679 9.375 15.679C10.1174 15.679 10.7521 15.8861 11.2791 16.3004C11.8094 16.7114 12.2138 17.308 12.4922 18.0902C12.7739 18.8691 12.9148 19.8087 12.9148 20.9091C12.9148 22.0161 12.7756 22.9607 12.4972 23.7429C12.2188 24.5218 11.8161 25.1167 11.2891 25.5277C10.7621 25.9354 10.1241 26.1392 9.375 26.1392ZM9.375 25.0455C10.1174 25.0455 10.6941 24.6875 11.1051 23.9716C11.5161 23.2557 11.7216 22.2348 11.7216 20.9091C11.7216 20.0275 11.6271 19.2768 11.4382 18.657C11.2526 18.0372 10.9841 17.5649 10.6328 17.2401C10.2848 16.9152 9.86553 16.7528 9.375 16.7528C8.6392 16.7528 8.06416 17.1158 7.64986 17.8416C7.23556 18.5642 7.02841 19.5866 7.02841 20.9091C7.02841 21.7907 7.12121 22.5398 7.30682 23.1562C7.49242 23.7727 7.75923 24.2417 8.10724 24.5632C8.45857 24.8847 8.88116 25.0455 9.375 25.0455ZM22.3608 15.3409L19.0795 27.5312H18.0057L21.2869 15.3409H22.3608ZM31.2488 15.8182V26H30.0158V17.1108H29.9561L27.4703 18.7614V17.5085L30.0158 15.8182H31.2488Z" fill="black"/>
<circle cx="19" cy="19" r="19" fill="white"/>
<path d="M19.15 24.85L17.85 24.85V19.65L12.65 19.65V18.35L17.85 18.35V13.15L19.15 13.15L19.15 18.35H24.35V19.65H19.15L19.15 24.85Z" fill="black"/>
</svg>
