<svg width="20" height="20" viewBox="0 0 20 20" fill="none" xmlns="http://www.w3.org/2000/svg">
<path d="M10 10C10.3437 10 10.638 9.8825 10.8828 9.6475C11.1276 9.4125 11.25 9.13 11.25 8.8C11.25 8.47 11.1276 8.1875 10.8828 7.9525C10.638 7.7175 10.3437 7.6 10 7.6C9.65625 7.6 9.36198 7.7175 9.11719 7.9525C8.8724 8.1875 8.75 8.47 8.75 8.8C8.75 9.13 8.8724 9.4125 9.11719 9.6475C9.36198 9.8825 9.65625 10 10 10ZM10 16C8.32292 14.63 7.07031 13.3575 6.24219 12.1825C5.41406 11.0075 5 9.92 5 8.92C5 7.42 5.5026 6.225 6.50781 5.335C7.51302 4.445 8.67708 4 10 4C11.3229 4 12.487 4.445 13.4922 5.335C14.4974 6.225 15 7.42 15 8.92C15 9.92 14.5859 11.0075 13.7578 12.1825C12.9297 13.3575 11.6771 14.63 10 16Z" fill="#9CAFFC"/>
</svg>
