<svg width="16" height="17" viewBox="0 0 16 17" fill="none" xmlns="http://www.w3.org/2000/svg">
<path d="M7.33346 4.49998C7.33346 4.40732 7.33346 4.36065 7.33879 4.32198C7.35586 4.20001 7.41221 4.08691 7.4993 3.99982C7.58639 3.91273 7.69948 3.85639 7.82146 3.83932C7.86079 3.83398 7.90679 3.83398 7.99946 3.83398C8.09212 3.83398 8.13946 3.83398 8.17746 3.83932C8.29944 3.85639 8.41253 3.91273 8.49962 3.99982C8.58671 4.08691 8.64306 4.20001 8.66013 4.32198C8.66546 4.36065 8.66546 4.40732 8.66546 4.49998C8.66546 4.59265 8.66546 4.63932 8.66013 4.67798C8.64306 4.79996 8.58671 4.91306 8.49962 5.00015C8.41253 5.08724 8.29944 5.14358 8.17746 5.16065C8.13879 5.16598 8.09212 5.16598 7.99946 5.16598C7.90679 5.16598 7.86013 5.16598 7.82146 5.16065C7.69948 5.14358 7.58639 5.08724 7.4993 5.00015C7.41221 4.91306 7.35586 4.79996 7.33879 4.67798C7.33346 4.63932 7.33346 4.59265 7.33346 4.49998ZM7.33346 8.49998C7.33346 8.40732 7.33346 8.36065 7.33879 8.32198C7.35586 8.20001 7.41221 8.08691 7.4993 7.99982C7.58639 7.91273 7.69948 7.85639 7.82146 7.83932C7.86079 7.83398 7.90679 7.83398 7.99946 7.83398C8.09212 7.83398 8.13946 7.83398 8.17746 7.83932C8.29944 7.85639 8.41253 7.91273 8.49962 7.99982C8.58671 8.08691 8.64306 8.20001 8.66013 8.32198C8.66546 8.36065 8.66546 8.40732 8.66546 8.49998C8.66546 8.59265 8.66546 8.63932 8.66013 8.67798C8.64306 8.79996 8.58671 8.91306 8.49962 9.00015C8.41253 9.08724 8.29944 9.14358 8.17746 9.16065C8.13879 9.16598 8.09212 9.16598 7.99946 9.16598C7.90679 9.16598 7.86013 9.16598 7.82146 9.16065C7.69948 9.14358 7.58639 9.08724 7.4993 9.00015C7.41221 8.91306 7.35586 8.79996 7.33879 8.67798C7.33346 8.63932 7.33346 8.59265 7.33346 8.49998ZM7.33346 12.3C7.32813 12.3387 7.32812 12.3853 7.32812 12.478C7.32812 12.5707 7.32813 12.6173 7.33346 12.656C7.35053 12.778 7.40687 12.8911 7.49396 12.9781C7.58105 13.0652 7.69415 13.1216 7.81613 13.1387C7.85479 13.144 7.90146 13.144 7.99413 13.144C8.08679 13.144 8.13346 13.144 8.17213 13.1387C8.2941 13.1216 8.4072 13.0652 8.49429 12.9781C8.58138 12.8911 8.63772 12.778 8.65479 12.656C8.66013 12.6173 8.66013 12.5707 8.66013 12.478C8.66013 12.3853 8.66013 12.3387 8.65479 12.3C8.63772 12.178 8.58138 12.0649 8.49429 11.9778C8.4072 11.8907 8.2941 11.8344 8.17213 11.8173C8.13346 11.812 8.08679 11.812 7.99413 11.812C7.90146 11.812 7.85479 11.812 7.81613 11.8173C7.69415 11.8344 7.58105 11.8907 7.49396 11.9778C7.40687 12.0649 7.35053 12.178 7.33346 12.3Z" fill="#303030"/>
</svg>
