<svg width="19" height="18" viewBox="0 0 19 18" fill="none" xmlns="http://www.w3.org/2000/svg">
<path d="M9.5 18L8.195 16.7248C6.68 15.2371 5.4275 13.9537 4.4375 12.8747C3.4475 11.7956 2.66 10.827 2.075 9.96866C1.49 9.11035 1.08125 8.32152 0.84875 7.60218C0.61625 6.88283 0.5 6.14714 0.5 5.3951C0.5 3.85831 0.9725 2.57493 1.9175 1.54496C2.8625 0.514986 4.04 0 5.45 0C6.23 0 6.9725 0.179836 7.6775 0.539509C8.3825 0.899182 8.99 1.40599 9.5 2.05995C10.01 1.40599 10.6175 0.899182 11.3225 0.539509C12.0275 0.179836 12.77 0 13.55 0C14.96 0 16.1375 0.514986 17.0825 1.54496C18.0275 2.57493 18.5 3.85831 18.5 5.3951C18.5 6.14714 18.3837 6.88283 18.1512 7.60218C17.9187 8.32152 17.51 9.11035 16.925 9.96866C16.34 10.827 15.5525 11.7956 14.5625 12.8747C13.5725 13.9537 12.32 15.2371 10.805 16.7248L9.5 18ZM9.5 15.3515C10.94 13.9455 12.125 12.7398 13.055 11.7343C13.985 10.7289 14.72 9.85422 15.26 9.11035C15.8 8.36648 16.175 7.70436 16.385 7.12398C16.595 6.5436 16.7 5.9673 16.7 5.3951C16.7 4.41417 16.4 3.59673 15.8 2.94278C15.2 2.28883 14.45 1.96185 13.55 1.96185C12.845 1.96185 12.1925 2.17847 11.5925 2.61172C10.9925 3.04496 10.58 3.59673 10.355 4.26703H8.645C8.42 3.59673 8.0075 3.04496 7.4075 2.61172C6.8075 2.17847 6.155 1.96185 5.45 1.96185C4.55 1.96185 3.8 2.28883 3.2 2.94278C2.6 3.59673 2.3 4.41417 2.3 5.3951C2.3 5.9673 2.405 6.5436 2.615 7.12398C2.825 7.70436 3.2 8.36648 3.74 9.11035C4.28 9.85422 5.015 10.7289 5.945 11.7343C6.875 12.7398 8.06 13.9455 9.5 15.3515Z" fill="#6A71E5"/>
</svg>
